
<svg version="1.0" xmlns="http://www.w3.org/2000/svg"
 width="487.000000pt" height="293.000000pt" viewBox="0 0 487.000000 293.000000"
 preserveAspectRatio="xMidYMid meet">

<g transform="translate(0.000000,293.000000) scale(0.100000,-0.100000)"
fill="white" stroke="none">
<path d="M3742 2867 c-36 -37 -47 -43 -73 -39 -30 4 -58 -22 -525 -489 l-494
-494 0 248 c0 201 -3 255 -15 285 -21 49 -52 81 -100 103 -37 17 -75 19 -545
19 -470 0 -508 -2 -545 -19 -67 -31 -115 -102 -115 -170 0 -25 -5 -30 -35 -35
-42 -8 -89 -54 -105 -100 -16 -49 3 -112 45 -150 l32 -29 -33 -29 c-65 -57
-64 -162 2 -216 l33 -28 -33 -26 c-67 -53 -67 -159 -1 -216 l34 -31 -38 -38
c-49 -49 -61 -105 -34 -160 20 -42 74 -83 109 -83 23 0 24 -3 24 -72 1 -116
40 -181 129 -213 37 -13 118 -15 531 -15 525 0 543 2 599 53 53 49 61 85 61
300 0 149 3 197 12 197 7 0 241 228 520 507 l507 507 26 -24 26 -24 -273 -273
-272 -272 24 -26 24 -26 293 293 c161 161 293 299 293 306 0 7 -19 33 -42 58
l-41 45 62 63 c51 52 62 68 56 85 -5 17 3 32 34 66 23 25 41 50 41 58 0 15
-131 147 -146 147 -5 0 -29 -19 -52 -43z m83 -126 l-25 -26 -27 27 -27 27 24
26 24 25 28 -27 28 -27 -25 -25z m-102 -59 l57 -57 -540 -540 -539 -539 -26
24 c-22 21 -25 31 -25 94 l0 71 502 502 c277 277 505 503 508 503 3 0 31 -26
63 -58z m-1235 -344 c16 -16 17 -644 1 -654 -6 -4 -47 -80 -90 -170 l-78 -164
-345 0 -346 0 0 -40 0 -40 354 0 355 0 77 35 c42 19 78 35 80 35 9 0 3 -283
-6 -301 -10 -18 -26 -19 -500 -19 -474 0 -490 1 -500 19 -15 30 -14 1283 2
1299 17 17 979 17 996 0z m-1158 -203 c0 -50 -3 -65 -14 -65 -16 0 -56 46 -56
65 0 19 40 65 56 65 11 0 14 -15 14 -65z m0 -270 c0 -58 -2 -65 -20 -65 -28 0
-53 51 -41 84 9 22 35 45 54 46 4 0 7 -29 7 -65z m0 -279 c0 -60 -1 -64 -21
-59 -47 13 -61 89 -20 113 35 20 41 12 41 -54z m1170 -99 l0 -64 -39 -15 -39
-16 37 79 c20 43 37 78 39 79 1 0 2 -29 2 -63z m-1170 -172 c0 -64 -8 -76 -36
-57 -38 25 -36 88 3 111 30 18 33 13 33 -54z"/>
<path d="M1630 2150 l0 -40 360 0 360 0 0 40 0 40 -360 0 -360 0 0 -40z"/>
<path d="M1630 1940 l0 -40 360 0 360 0 0 40 0 40 -360 0 -360 0 0 -40z"/>
<path d="M1630 1730 l0 -40 360 0 360 0 0 40 0 40 -360 0 -360 0 0 -40z"/>
<path d="M1630 1520 l0 -40 360 0 360 0 0 40 0 40 -360 0 -360 0 0 -40z"/>
<path d="M1527 403 c-4 -58 -7 -166 -7 -240 l0 -133 30 0 30 0 0 125 0 125 33
20 c41 25 82 25 107 0 18 -18 20 -33 20 -145 l0 -125 25 0 25 0 0 136 0 136
-29 29 c-36 36 -98 40 -148 9 l-33 -20 0 95 c0 93 0 95 -23 95 -23 0 -24 -3
-30 -107z"/>
<path d="M2410 270 l0 -240 25 0 24 0 3 122 3 122 34 23 c41 28 71 29 102 4
23 -18 24 -27 27 -145 4 -126 4 -126 28 -126 l24 0 0 125 c0 90 -4 134 -14
154 -27 52 -105 67 -164 31 -18 -11 -35 -20 -39 -20 -3 0 -3 43 1 95 l7 95
-30 0 -31 0 0 -240z"/>
<path d="M40 398 c0 -57 -3 -160 -7 -231 l-6 -127 112 0 c129 0 171 14 202 64
38 61 19 128 -42 155 -36 17 -39 20 -20 26 35 11 61 54 61 99 0 87 -50 116
-200 116 l-100 0 0 -102z m214 39 c13 -9 26 -27 30 -41 16 -65 -43 -109 -137
-104 l-52 3 -3 69 c-4 99 -4 100 73 94 36 -3 76 -13 89 -21z m27 -216 c26 -32
24 -77 -6 -106 -22 -22 -32 -25 -105 -25 l-80 0 0 81 0 81 86 -3 c76 -4 88 -7
105 -28z"/>
<path d="M1054 486 c-12 -31 0 -51 31 -51 27 0 30 3 30 30 0 25 -4 30 -28 33
-17 2 -29 -2 -33 -12z"/>
<path d="M3178 479 c-24 -14 -41 -47 -47 -94 -5 -32 -11 -41 -28 -43 -13 -2
-23 -10 -23 -17 0 -7 10 -15 23 -17 21 -3 22 -6 25 -146 l3 -142 24 0 25 0 0
140 0 140 50 0 c43 0 50 3 50 20 0 17 -7 20 -51 20 l-52 0 6 42 c6 47 27 68
69 68 21 0 28 5 28 20 0 17 -7 20 -42 20 -24 0 -51 -5 -60 -11z"/>
<path d="M3710 463 c0 -21 5 -22 73 -25 l72 -3 3 -208 2 -207 30 0 30 0 0 205
0 205 75 0 c73 0 75 1 75 25 l0 24 -180 3 c-180 3 -180 3 -180 -19z"/>
<path d="M4790 255 l0 -235 24 0 c20 0 24 6 30 46 3 26 6 132 6 235 l0 189
-30 0 -30 0 0 -235z"/>
<path d="M1914 408 c-8 -48 -12 -53 -37 -56 -36 -4 -33 -36 4 -40 l25 -3 0
-118 c-1 -103 1 -121 18 -140 32 -36 144 -23 129 15 -4 11 -13 13 -35 9 -51
-12 -58 5 -58 126 l0 109 45 0 c38 0 45 3 45 20 0 17 -7 20 -45 20 l-45 0 0
55 c0 47 -3 55 -19 55 -14 0 -20 -11 -27 -52z"/>
<path d="M3375 448 c-3 -7 -9 -33 -13 -58 -6 -39 -11 -45 -35 -48 -35 -4 -35
-30 1 -34 l27 -3 0 -121 c0 -108 2 -124 20 -144 17 -19 28 -21 68 -17 57 5 76
19 58 41 -10 12 -18 13 -36 4 -45 -21 -55 1 -55 123 l0 109 45 0 c38 0 45 3
45 20 0 17 -7 20 -45 20 l-45 0 0 60 c0 47 -3 60 -15 60 -9 0 -18 -6 -20 -12z"/>
<path d="M502 350 c-49 -30 -72 -75 -72 -143 0 -67 21 -121 56 -144 56 -36
143 -35 200 2 23 15 24 19 12 31 -13 13 -18 13 -44 -1 -33 -17 -96 -20 -125
-5 -22 12 -49 61 -49 90 0 19 6 20 115 20 l115 0 0 39 c0 44 -33 99 -70 118
-37 19 -101 16 -138 -7z m133 -45 c14 -13 25 -33 25 -45 0 -19 -6 -20 -90 -20
-49 0 -90 2 -90 5 0 15 32 65 47 74 33 19 82 13 108 -14z"/>
<path d="M903 360 c-12 -5 -30 -21 -40 -36 l-18 -28 -5 29 c-4 21 -12 31 -28
33 l-22 3 0 -160 0 -161 25 0 25 0 0 104 c0 98 2 106 26 135 21 26 33 31 69
31 37 0 43 3 47 24 7 35 -29 46 -79 26z"/>
<path d="M1060 195 l0 -165 25 0 25 0 0 165 0 165 -25 0 -25 0 0 -165z"/>
<path d="M1264 341 c-41 -25 -64 -77 -64 -146 0 -111 57 -171 153 -163 29 2
65 13 80 23 25 16 26 20 14 32 -13 13 -19 13 -45 -1 -74 -38 -134 -4 -148 82
-8 54 9 116 39 137 26 18 76 20 112 3 20 -9 28 -9 38 1 9 10 7 16 -12 32 -32
26 -124 26 -167 0z"/>
<path d="M2158 344 c-52 -28 -63 -86 -25 -128 12 -13 45 -32 74 -41 28 -9 57
-22 63 -30 19 -23 7 -59 -25 -74 -26 -12 -35 -12 -79 3 -40 15 -50 15 -57 4
-11 -17 13 -35 63 -49 78 -20 158 27 158 93 0 48 -16 65 -89 93 -78 29 -95 53
-64 87 18 20 59 21 119 3 38 -12 37 21 -1 39 -41 20 -101 20 -137 0z"/>
<path d="M2845 346 c-88 -40 -120 -148 -74 -243 37 -77 128 -103 217 -63 70
32 50 62 -24 34 -37 -14 -51 -15 -84 -5 -41 12 -60 37 -74 94 l-6 27 121 0
122 0 -7 43 c-8 49 -26 80 -61 103 -34 22 -94 27 -130 10z m123 -62 c12 -14
22 -34 22 -45 0 -17 -8 -19 -90 -19 -80 0 -90 2 -90 18 0 24 28 62 54 72 32
14 79 3 104 -26z"/>
<path d="M4112 330 c-49 -30 -72 -75 -72 -143 0 -67 21 -121 56 -144 65 -42
165 -33 209 19 70 83 49 230 -39 272 -47 22 -114 20 -154 -4z m128 -35 c36
-18 54 -71 48 -136 -7 -68 -37 -99 -95 -99 -57 0 -89 30 -98 93 -17 112 59
187 145 142z"/>
<path d="M4480 332 c-52 -25 -82 -91 -78 -165 7 -96 61 -150 153 -150 61 0 91
16 129 67 32 42 30 159 -3 205 -42 59 -131 78 -201 43z m148 -57 c40 -47 25
-190 -23 -209 -9 -3 -33 -6 -53 -6 -65 1 -92 38 -92 127 0 63 16 98 54 114 35
14 89 2 114 -26z"/>
<path d="M3560 215 c0 -25 1 -25 80 -25 79 0 80 0 80 25 0 25 -1 25 -80 25
-79 0 -80 0 -80 -25z"/>
</g>
</svg>
